============ BREAKING BENJAMIN - DIARY OF JANE FULL HD 1080P ================

Format                           : MPEG-4
Format profile                   : Base Media / Version 2
Codec ID                         : mp42
File size                        : 86.0 MiB
Duration                         : 3mn 21s
Overall bit rate                 : 3 578 Kbps
Encoded date                     : UTC 2010-07-23 20:05:13
Tagged date                      : UTC 2010-07-23 20:05:13
gsst                             : 0
gstd                             : 201556
gssd                             : BCA9FD842MM1308505919137859
gshh                             :

Video
ID                               : 2
Format                           : AVC
Format/Info                      : Advanced Video Codec
Format profile                   : High@L4.0
Format settings, CABAC           : Yes
Format settings, ReFrames        : 1 frame
Codec ID                         : avc1
Codec ID/Info                    : Advanced Video Coding
Duration                         : 3mn 21s
Bit rate mode                    : Variable
Bit rate                         : 3 450 Kbps
Maximum bit rate                 : 11.8 Mbps
Width                            : 1 920 pixels
Height                           : 1 080 pixels
Display aspect ratio             : 16:9
Frame rate mode                  : Constant
Frame rate                       : 29.917 fps
Color space                      : YUV
Chroma subsampling               : 4:2:0
Bit depth                        : 8 bits
Scan type                        : Progressive
Bits/(Pixel*Frame)               : 0.056
Stream size                      : 82.9 MiB (96%)
Title                            : (C) 2007 Google Inc. v08.13.2007.
Encoded date                     : UTC 2010-07-23 20:05:13
Tagged date                      : UTC 2010-07-23 20:05:14

Audio
ID                               : 1
Format                           : AAC
Format/Info                      : Advanced Audio Codec
Format version                   : Version 4
Format profile                   : LC
Format settings, SBR             : No
Codec ID                         : 40
Duration                         : 3mn 20s
Bit rate mode                    : Variable
Bit rate                         : 125 Kbps
Maximum bit rate                 : 194 Kbps
Channel(s)                       : 2 channels
Channel positions                : Front: L R
Sampling rate                    : 44.1 KHz
Stream size                      : 2.99 MiB (3%)
Title                            : (C) 2007 Google Inc. v08.13.2007.
Encoded date                     : UTC 2010-07-23 20:05:13
Tagged date                      : UTC 2010-07-23 20:05:14


======================= ARTIST/BAND/GROUP INFO ================================

                            Breaking Benjamin

is an American rock band from Wilkes-Barre, Pennsylvania, consisting of Benjamin Burnley, Aaron Fink, Mark Klepaski and Chad Szeliga. The band has released four albums to date and are releasing a Greatest Hits Album on August 16, 2011.

========================= MUSIC STYLE/ GENRE ==================================

alternative rock, post-grunge,hard rock, and alternative metal.

OFFICIAL SITE:-  www.shallowbay.com

================================ SCREEN SHOT ===================================

                        http://bayimg.com/CaIhLaaDl


============================ FOLLOW ME ON TWEETER AND FACEBOOK =================

        SEARCH FOR   haunting_summer

  http: // www. facebook. com/ pages/ HaUnTiNgSuMMeR-ToRrEnTs/ 192812490771363

=================================================================================

--------------- PLZ RATE +/- THE QUALITY N COMMENT IF POSSIBLE -----------------
